<svg width="40" height="40" viewBox="0 0 40 40" fill="none" xmlns="http://www.w3.org/2000/svg">
<rect width="40" height="40" rx="20" fill="#22C55E" fill-opacity="0.2"/>
<rect x="0.5" y="0.5" width="39" height="39" rx="19.5" stroke="#4ADE80" stroke-opacity="0.3"/>
<path d="M26.6667 18.3333C26.6667 23.3333 20 28.3333 20 28.3333C20 28.3333 13.3333 23.3333 13.3333 18.3333C13.3333 16.5652 14.0357 14.8695 15.286 13.6192C16.5362 12.369 18.2319 11.6666 20 11.6666C21.7681 11.6666 23.4638 12.369 24.714 13.6192C25.9643 14.8695 26.6667 16.5652 26.6667 18.3333Z" stroke="#4ADE80" stroke-width="1.66667" stroke-linecap="round" stroke-linejoin="round"/>
<path d="M20 20.8334C21.3807 20.8334 22.5 19.7141 22.5 18.3334C22.5 16.9527 21.3807 15.8334 20 15.8334C18.6193 15.8334 17.5 16.9527 17.5 18.3334C17.5 19.7141 18.6193 20.8334 20 20.8334Z" stroke="#4ADE80" stroke-width="1.66667" stroke-linecap="round" stroke-linejoin="round"/>
</svg>
